<svg xmlns="http://www.w3.org/2000/svg" xmlns:xlink="http://www.w3.org/1999/xlink" viewBox="0 0 2240 900" width="2240" height="900" preserveAspectRatio="xMidYMid meet" style="width: 100%; height: 100%; transform: translate3d(0px, 0px, 0px); content-visibility: visible;"><defs><clipPath id="__lottie_element_52"><rect width="2240" height="900" x="0" y="0"></rect></clipPath><clipPath id="__lottie_element_54"><path d="M0,0 L3840,0 L3840,2000 L0,2000z"></path></clipPath><clipPath id="__lottie_element_58"><path d="M0,0 L350,0 L350,339 L0,339z"></path></clipPath><clipPath id="__lottie_element_86"><path d="M0,0 L350,0 L350,338 L0,338z"></path></clipPath><clipPath id="__lottie_element_114"><path d="M0,0 L3840,0 L3840,2000 L0,2000z"></path></clipPath><clipPath id="__lottie_element_121"><path d="M0,0 L3840,0 L3840,2000 L0,2000z"></path></clipPath><clipPath id="__lottie_element_128"><path d="M0,0 L3840,0 L3840,2000 L0,2000z"></path></clipPath><clipPath id="__lottie_element_135"><path d="M0,0 L3840,0 L3840,2000 L0,2000z"></path></clipPath><clipPath id="__lottie_element_142"><path d="M0,0 L3840,0 L3840,2000 L0,2000z"></path></clipPath><clipPath id="__lottie_element_149"><path d="M0,0 L3840,0 L3840,2000 L0,2000z"></path></clipPath><clipPath id="__lottie_element_156"><path d="M0,0 L75,0 L75,75 L0,75z"></path></clipPath><clipPath id="__lottie_element_163"><path d="M0,0 L75,0 L75,75 L0,75z"></path></clipPath><clipPath id="__lottie_element_173"><path d="M0,0 L800,0 L800,800 L0,800z"></path></clipPath><clipPath id="__lottie_element_181"><path d="M0,0 L50,0 L50,50 L0,50z"></path></clipPath><clipPath id="__lottie_element_182"><path fill="#ffffff" clip-rule="nonzero" d=" M56.637001037597656,20.975000381469727 C56.637001037597656,20.975000381469727 -6.11299991607666,20.975000381469727 -6.11299991607666,20.975000381469727 C-6.11299991607666,20.975000381469727 -5.36299991607666,67.9749984741211 -5.36299991607666,67.9749984741211 C-5.36299991607666,67.9749984741211 53.637001037597656,67.9749984741211 53.637001037597656,67.9749984741211 C53.637001037597656,67.9749984741211 56.637001037597656,20.975000381469727 56.637001037597656,20.975000381469727" fill-opacity="1"></path></clipPath><clipPath id="__lottie_element_196"><path d="M0,0 L50,0 L50,50 L0,50z"></path></clipPath><clipPath id="__lottie_element_197"><path fill="#ffffff" clip-rule="nonzero" d=" M56.637001037597656,20.975000381469727 C56.637001037597656,20.975000381469727 -6.11299991607666,20.975000381469727 -6.11299991607666,20.975000381469727 C-6.11299991607666,20.975000381469727 -5.36299991607666,67.9749984741211 -5.36299991607666,67.9749984741211 C-5.36299991607666,67.9749984741211 53.637001037597656,67.9749984741211 53.637001037597656,67.9749984741211 C53.637001037597656,67.9749984741211 56.637001037597656,20.975000381469727 56.637001037597656,20.975000381469727" fill-opacity="1"></path></clipPath><clipPath id="__lottie_element_224"><path d="M0,0 L80,0 L80,114 L0,114z"></path></clipPath><clipPath id="__lottie_element_252"><path d="M0,0 L116,0 L116,236 L0,236z"></path></clipPath><clipPath id="__lottie_element_295"><path d="M0,0 L80,0 L80,113 L0,113z"></path></clipPath></defs><g clip-path="url(#__lottie_element_52)"><g clip-path="url(#__lottie_element_54)" transform="matrix(0.7599999904632568,0,0,0.7599999904632568,-339.199951171875,-292)" opacity="1" style="display: block;"><g transform="matrix(1,0,0,1,1920,1230.4649658203125)" opacity="1" style="display: block;"><g opacity="1" transform="matrix(2,0,0,2,0,0)"><path stroke-linecap="butt" stroke-linejoin="miter" fill-opacity="0" stroke-miterlimit="4" stroke="rgb(24,24,24)" stroke-opacity="1" stroke-width="2" d=" M622,0 C622,0 -622,0 -622,0"></path></g></g><g clip-path="url(#__lottie_element_295)" transform="matrix(1,0,0,1,3008.194091796875,1117.4539794921875)" opacity="1" style="display: block;"><g transform="matrix(1,0,0,1,35,64.02100372314453)" opacity="1" style="display: block;"><g opacity="1" transform="matrix(2,0,0,2,0,0)"><path fill="rgb(24,24,24)" fill-opacity="1" d=" M0,-24.5 C-9.664999961853027,-24.5 -17.5,-16.665000915527344 -17.5,-7 C-17.5,-7 -17.5,24.5 -17.5,24.5 C-17.5,24.5 17.5,24.5 17.5,24.5 C17.5,24.5 17.5,-7 17.5,-7 C17.5,-16.665000915527344 9.664999961853027,-24.5 0,-24.5z"></path></g></g><g transform="matrix(1,0,0,1,29.742000579833984,48.7599983215332)" opacity="1" style="display: block;"><g opacity="1" transform="matrix(1.95378577709198,0.4274589717388153,-0.4274589717388153,1.95378577709198,0,0)"><path stroke-linecap="butt" stroke-linejoin="miter" fill-opacity="0" stroke-miterlimit="4" stroke="rgb(255,255,255)" stroke-opacity="1" stroke-width="2" d=" M-3.25,3.25 C-3.25,3.25 3.25,-3.25 3.25,-3.25"></path></g></g><g transform="matrix(1,0,0,1,51.74300003051758,68.76000213623047)" opacity="1" style="display: block;"><g opacity="1" transform="matrix(1.3731602430343628,-1.4541083574295044,1.4541083574295044,1.3731602430343628,0,0)"><path stroke-linecap="butt" stroke-linejoin="miter" fill-opacity="0" stroke-miterlimit="4" stroke="rgb(255,255,255)" stroke-opacity="1" stroke-width="2" d=" M-3.25,3.25 C-3.25,3.25 3.25,-3.25 3.25,-3.25"></path></g></g><g transform="matrix(-1,0,0,-1,71.19499969482422,72.21299743652344)" opacity="1" style="display: block;"><g opacity="1" transform="matrix(1.4142135381698608,1.4142135381698608,-1.4142135381698608,1.4142135381698608,0,0)"><path stroke-linecap="butt" stroke-linejoin="miter" fill-opacity="0" stroke-miterlimit="4" stroke="rgb(24,24,24)" stroke-opacity="1" stroke-width="2" d=" M-3.25,3.25 C-3.25,3.25 3.25,-3.25 3.25,-3.25"></path></g></g><g transform="matrix(-1,0,0,-1,67.19499969482422,82.21299743652344)" opacity="1" style="display: block;"><g opacity="1" transform="matrix(1.4142135381698608,1.4142135381698608,-1.4142135381698608,1.4142135381698608,0,0)"><path stroke-linecap="butt" stroke-linejoin="miter" fill-opacity="0" stroke-miterlimit="4" stroke="rgb(24,24,24)" stroke-opacity="1" stroke-width="2" d=" M-3.25,3.25 C-3.25,3.25 3.25,-3.25 3.25,-3.25"></path></g></g><g transform="matrix(1,0,0,1,31.57200050354004,88.06900024414062)" opacity="1" style="display: block;"><g opacity="1" transform="matrix(0.8068670034408569,1.8300179243087769,-1.8300179243087769,0.8068670034408569,0,0)"><path stroke-linecap="butt" stroke-linejoin="miter" fill-opacity="0" stroke-miterlimit="4" stroke="rgb(255,255,255)" stroke-opacity="1" stroke-width="2" d=" M-5.228000164031982,1.8350000381469727 C-5.228000164031982,1.8350000381469727 5.228000164031982,-1.8350000381469727 5.228000164031982,-1.8350000381469727"></path></g></g><g transform="matrix(0.9992002844810486,0.03998453915119171,-0.03998453915119171,0.9992002844810486,42.64296340942383,14.343343734741211)" opacity="1" style="display: block;"><g opacity="1" transform="matrix(1.9034032821655273,0.6140488386154175,-0.6140488386154175,1.9034032821655273,0,0)"><path fill="rgb(24,24,24)" fill-opacity="1" d=" M0,-8.5 C1.6556999683380127,-8.5 3,-4.691150188446045 3,0 C3,4.691150188446045 1.6556999683380127,8.5 0,8.5 C-1.6556999683380127,8.5 -3,4.691150188446045 -3,0 C-3,-4.691150188446045 -1.6556999683380127,-8.5 0,-8.5z"></path></g></g></g><g clip-path="url(#__lottie_element_252)" transform="matrix(1,0,0,1,2881.85595703125,994.4649658203125)" opacity="1" style="display: block;"><g transform="matrix(1,0,0,1,53,131)" opacity="1" style="display: block;"><g opacity="1" transform="matrix(2,0,0,2,0,0)"><path fill="rgb(24,24,24)" fill-opacity="1" d=" M0,-52.5 C-11.87399959564209,-52.5 -21.5,-42.874000549316406 -21.5,-31 C-21.5,-31 -21.5,52.5 -21.5,52.5 C-21.5,52.5 21.5,52.5 21.5,52.5 C21.5,52.5 21.5,-31 21.5,-31 C21.5,-42.874000549316406 11.87399959564209,-52.5 0,-52.5z"></path></g></g><g transform="matrix(1,0,0,1,37,210)" opacity="1" style="display: block;"><g opacity="1" transform="matrix(2,0,0,2,0,0)"><path stroke-linecap="butt" stroke-linejoin="miter" fill-opacity="0" stroke-miterlimit="4" stroke="rgb(255,255,255)" stroke-opacity="1" stroke-width="2" d=" M-5.5,6 C-5.5,6 5.5,-6 5.5,-6"></path></g></g><g transform="matrix(-1,0,0,-1,62.845001220703125,96.84700012207031)" opacity="1" style="display: block;"><g opacity="1" transform="matrix(0.10965637862682343,1.9969916343688965,-1.9969916343688965,0.10965637862682343,0,0)"><path stroke-linecap="butt" stroke-linejoin="miter" fill-opacity="0" stroke-miterlimit="4" stroke="rgb(255,255,255)" stroke-opacity="1" stroke-width="2" d=" M-3.25,3.25 C-3.25,3.25 3.25,-3.25 3.25,-3.25"></path></g></g><g transform="matrix(1,0,0,1,38.465999603271484,74.79900360107422)" opacity="1" style="display: block;"><g opacity="1" transform="matrix(1.9484491348266602,-0.4511604607105255,0.4511604607105255,1.9484491348266602,0,0)"><path stroke-linecap="butt" stroke-linejoin="miter" fill-opacity="0" stroke-miterlimit="4" stroke="rgb(255,255,255)" stroke-opacity="1" stroke-width="2" d=" M-6.313000202178955,6.132999897003174 C-6.313000202178955,6.132999897003174 6.313000202178955,-6.132999897003174 6.313000202178955,-6.132999897003174"></path></g></g><g transform="matrix(1,0,0,1,75.74199676513672,161.73899841308594)" opacity="1" style="display: block;"><g opacity="1" transform="matrix(1.95378577709198,0.4274589717388153,-0.4274589717388153,1.95378577709198,0,0)"><path stroke-linecap="butt" stroke-linejoin="miter" fill-opacity="0" stroke-miterlimit="4" stroke="rgb(255,255,255)" stroke-opacity="1" stroke-width="2" d=" M-3.25,3.25 C-3.25,3.25 3.25,-3.25 3.25,-3.25"></path></g></g><g transform="matrix(1,0,0,1,73.74199676513672,213.73899841308594)" opacity="1" style="display: block;"><g opacity="1" transform="matrix(0.23375748097896576,1.9862923622131348,-1.9862923622131348,0.23375748097896576,0,0)"><path stroke-linecap="butt" stroke-linejoin="miter" fill-opacity="0" stroke-miterlimit="4" stroke="rgb(255,255,255)" stroke-opacity="1" stroke-width="2" d=" M-3.25,3.25 C-3.25,3.25 3.25,-3.25 3.25,-3.25"></path></g></g><g transform="matrix(1,0,0,1,37.74599838256836,144.25999450683594)" opacity="1" style="display: block;"><g opacity="1" transform="matrix(1.7903823852539062,-0.891364574432373,0.891364574432373,1.7903823852539062,0,0)"><path stroke-linecap="butt" stroke-linejoin="miter" fill-opacity="0" stroke-miterlimit="4" stroke="rgb(255,255,255)" stroke-opacity="1" stroke-width="2" d=" M-5.375999927520752,5.770999908447266 C-5.375999927520752,5.770999908447266 5.375999927520752,-5.770999908447266 5.375999927520752,-5.770999908447266"></path></g></g><g transform="matrix(1,0,0,1,102,101)" opacity="1" style="display: block;"><g opacity="1" transform="matrix(2,0,0,2,0,0)"><path stroke-linecap="butt" stroke-linejoin="miter" fill-opacity="0" stroke-miterlimit="4" stroke="rgb(24,24,24)" stroke-opacity="1" stroke-width="2" d=" M4.5,0 C4.5,0 -4.5,0 -4.5,0"></path></g></g><g transform="matrix(1,0,0,1,102,114)" opacity="1" style="display: block;"><g opacity="1" transform="matrix(2,0,0,2,0,0)"><path stroke-linecap="butt" stroke-linejoin="miter" fill-opacity="0" stroke-miterlimit="4" stroke="rgb(24,24,24)" stroke-opacity="1" stroke-width="2" d=" M4.5,0 C4.5,0 -4.5,0 -4.5,0"></path></g></g><g transform="matrix(1,0,0,1,9,134)" opacity="1" style="display: block;"><g opacity="1" transform="matrix(2,0,0,2,0,0)"><path stroke-linecap="butt" stroke-linejoin="miter" fill-opacity="0" stroke-miterlimit="4" stroke="rgb(24,24,24)" stroke-opacity="1" stroke-width="2" d=" M4.5,0 C4.5,0 -4.5,0 -4.5,0"></path></g></g><g transform="matrix(1,0,0,1,9,148)" opacity="1" style="display: block;"><g opacity="1" transform="matrix(2,0,0,2,0,0)"><path stroke-linecap="butt" stroke-linejoin="miter" fill-opacity="0" stroke-miterlimit="4" stroke="rgb(24,24,24)" stroke-opacity="1" stroke-width="2" d=" M4.5,0 C4.5,0 -4.5,0 -4.5,0"></path></g></g><g transform="matrix(0.9978963136672974,-0.06483014672994614,0.06483014672994614,0.9978963136672974,84.9348373413086,36.23802947998047)" opacity="1" style="display: block;"><g opacity="1" transform="matrix(0.763818621635437,1.8483996391296387,-1.8483996391296387,0.763818621635437,0,0)"><path fill="rgb(24,24,24)" fill-opacity="1" d=" M0,-14.5 C2.2076001167297363,-14.5 4,-8.00255012512207 4,0 C4,8.00255012512207 2.2076001167297363,14.5 0,14.5 C-2.2076001167297363,14.5 -4,8.00255012512207 -4,0 C-4,-8.00255012512207 -2.2076001167297363,-14.5 0,-14.5z"></path></g></g><g transform="matrix(0.9967136383056641,-0.08100569993257523,0.08100569993257523,0.9967136383056641,75.92466735839844,28.81039047241211)" opacity="1" style="display: block;"><g opacity="1" transform="matrix(1.8404910564422607,0.7826830744743347,-0.7826830744743347,1.8404910564422607,0,0)"><path fill="rgb(24,24,24)" fill-opacity="1" d=" M0,-14.5 C2.2076001167297363,-14.5 4,-8.00255012512207 4,0 C4,8.00255012512207 2.2076001167297363,14.5 0,14.5 C-2.2076001167297363,14.5 -4,8.00255012512207 -4,0 C-4,-8.00255012512207 -2.2076001167297363,-14.5 0,-14.5z"></path></g></g></g><g clip-path="url(#__lottie_element_224)" transform="matrix(1,0,0,1,916.197021484375,1116.4649658203125)" opacity="1" style="display: block;"><g transform="matrix(1,0,0,1,45.38800048828125,65)" opacity="1" style="display: block;"><g opacity="1" transform="matrix(2,0,0,2,0,0)"><path fill="rgb(24,24,24)" fill-opacity="1" d=" M0,-24.5 C9.664999961853027,-24.5 17.5,-16.665000915527344 17.5,-7 C17.5,-7 17.5,24.5 17.5,24.5 C17.5,24.5 -17.5,24.5 -17.5,24.5 C-17.5,24.5 -17.5,-7 -17.5,-7 C-17.5,-16.665000915527344 -9.664999961853027,-24.5 0,-24.5z"></path></g></g><g transform="matrix(-1,0,0,1,56.209999084472656,50.9900016784668)" opacity="1" style="display: block;"><g opacity="1" transform="matrix(1.8075082302093506,-0.8561040163040161,0.8561040163040161,1.8075082302093506,0,0)"><path stroke-linecap="butt" stroke-linejoin="miter" fill-opacity="0" stroke-miterlimit="4" stroke="rgb(255,255,255)" stroke-opacity="1" stroke-width="2" d=" M-3.25,3.25 C-3.25,3.25 3.25,-3.25 3.25,-3.25"></path></g></g><g transform="matrix(-1,0,0,1,24.722999572753906,70.34300231933594)" opacity="1" style="display: block;"><g opacity="1" transform="matrix(1.9070451259613037,0.6026432514190674,-0.6026432514190674,1.9070451259613037,0,0)"><path stroke-linecap="butt" stroke-linejoin="miter" fill-opacity="0" stroke-miterlimit="4" stroke="rgb(255,255,255)" stroke-opacity="1" stroke-width="2" d=" M-3.25,3.25 C-3.25,3.25 3.25,-3.25 3.25,-3.25"></path></g></g><g transform="matrix(1,0,0,-1,18.385000228881836,82.38500213623047)" opacity="1" style="display: block;"><g opacity="1" transform="matrix(1.4142135381698608,-1.4142135381698608,1.4142135381698608,1.4142135381698608,0,0)"><path stroke-linecap="butt" stroke-linejoin="miter" fill-opacity="0" stroke-miterlimit="4" stroke="rgb(24,24,24)" stroke-opacity="1" stroke-width="2" d=" M-3.25,3.25 C-3.25,3.25 3.25,-3.25 3.25,-3.25"></path></g></g><g transform="matrix(1,0,0,-1,22.385000228881836,92.38500213623047)" opacity="1" style="display: block;"><g opacity="1" transform="matrix(1.4142135381698608,-1.4142135381698608,1.4142135381698608,1.4142135381698608,0,0)"><path stroke-linecap="butt" stroke-linejoin="miter" fill-opacity="0" stroke-miterlimit="4" stroke="rgb(24,24,24)" stroke-opacity="1" stroke-width="2" d=" M-3.25,3.25 C-3.25,3.25 3.25,-3.25 3.25,-3.25"></path></g></g><g transform="matrix(-1,0,0,1,48.85900115966797,97.4260025024414)" opacity="1" style="display: block;"><g opacity="1" transform="matrix(0.8068670034408569,1.8300179243087769,-1.8300179243087769,0.8068670034408569,0,0)"><path stroke-linecap="butt" stroke-linejoin="miter" fill-opacity="0" stroke-miterlimit="4" stroke="rgb(255,255,255)" stroke-opacity="1" stroke-width="2" d=" M-5.228000164031982,1.8350000381469727 C-5.228000164031982,1.8350000381469727 5.228000164031982,-1.8350000381469727 5.228000164031982,-1.8350000381469727"></path></g></g><g transform="matrix(-0.9961634874343872,-0.08751165121793747,-0.08751165121793747,0.9961634874343872,29.404808044433594,20.027484893798828)" opacity="1" style="display: block;"><g opacity="1" transform="matrix(1.9034032821655273,0.6140488386154175,-0.6140488386154175,1.9034032821655273,0,0)"><path fill="rgb(24,24,24)" fill-opacity="1" d=" M0,-8.5 C1.6556999683380127,-8.5 3,-4.691150188446045 3,0 C3,4.691150188446045 1.6556999683380127,8.5 0,8.5 C-1.6556999683380127,8.5 -3,4.691150188446045 -3,0 C-3,-4.691150188446045 -1.6556999683380127,-8.5 0,-8.5z"></path></g></g><g transform="matrix(-0.9992871880531311,-0.03775019571185112,-0.03775019571185112,0.9992871880531311,65.2492446899414,22.66278076171875)" opacity="1" style="display: block;"><g opacity="1" transform="matrix(1.7321903705596924,-0.9997581243515015,0.9997581243515015,1.7321903705596924,0,0)"><path fill="rgb(24,24,24)" fill-opacity="1" d=" M0,-8.5 C1.6556999683380127,-8.5 3,-4.691150188446045 3,0 C3,4.691150188446045 1.6556999683380127,8.5 0,8.5 C-1.6556999683380127,8.5 -3,4.691150188446045 -3,0 C-3,-4.691150188446045 -1.6556999683380127,-8.5 0,-8.5z"></path></g></g></g><g transform="matrix(1,0,0,1,1976,1339.4649658203125)" opacity="1" style="display: block;"><g opacity="1" transform="matrix(2,0,0,2,0,0)"><path stroke-linecap="butt" stroke-linejoin="miter" fill-opacity="0" stroke-miterlimit="4" stroke="rgb(24,24,24)" stroke-opacity="1" stroke-width="6" d=" M294,1.5 C294,1.5 281,1.5 281,1.5 M435,-21.5 C435,-21.5 422,-21.5 422,-21.5 M-282,-21.5 C-282,-21.5 -295,-21.5 -295,-21.5 M-314,21.5 C-314,21.5 -327,21.5 -327,21.5 M169,-21.5 C169,-21.5 137,-21.5 137,-21.5 M542,21.5 C542,21.5 510,21.5 510,21.5 M-510,-21.5 C-510,-21.5 -542,-21.5 -542,-21.5"></path></g></g><g transform="matrix(1,0,0,1,2849,1215.4649658203125)" opacity="1" style="display: block;"><g opacity="1" transform="matrix(2,0,0,2,0,0)"><path fill="rgb(24,24,24)" fill-opacity="1" d=" M0,-7.5 C4.139249801635742,-7.5 7.5,-4.139249801635742 7.5,0 C7.5,4.139249801635742 4.139249801635742,7.5 0,7.5 C-4.139249801635742,7.5 -7.5,4.139249801635742 -7.5,0 C-7.5,-4.139249801635742 -4.139249801635742,-7.5 0,-7.5z"></path></g></g><g transform="matrix(1,0,0,1,797,1215.4649658203125)" opacity="1" style="display: block;"><g opacity="1" transform="matrix(2,0,0,2,0,0)"><path fill="rgb(24,24,24)" fill-opacity="1" d=" M0,-7.5 C4.139249801635742,-7.5 7.5,-4.139249801635742 7.5,0 C7.5,4.139249801635742 4.139249801635742,7.5 0,7.5 C-4.139249801635742,7.5 -7.5,4.139249801635742 -7.5,0 C-7.5,-4.139249801635742 -4.139249801635742,-7.5 0,-7.5z"></path></g></g><g clip-path="url(#__lottie_element_173)" transform="matrix(1,0,0,1,1520,658.7330322265625)" opacity="1" style="display: block;"><g transform="matrix(0.9715597629547119,0.23679450154304504,-0.23679450154304504,0.9715597629547119,467.7914123535156,320.8934326171875)" opacity="1" style="display: block;"><g opacity="1" transform="matrix(1.7755504846572876,0.920554518699646,-0.920554518699646,1.7755504846572876,0,0)"><path fill="rgb(4,4,4)" fill-opacity="1" d=" M10.430999755859375,5.734000205993652 C10.430999755859375,-1.9220000505447388 2.174999952316284,-13.871999740600586 -2.308000087738037,-13.871999740600586 C-6.790999889373779,-13.871999740600586 -10.430999755859375,-7.656000137329102 -10.430999755859375,0 C-10.430999755859375,7.656000137329102 -6.790999889373779,13.871999740600586 -2.308000087738037,13.871999740600586 C2.174999952316284,13.871999740600586 10.430999755859375,13.390000343322754 10.430999755859375,5.734000205993652z"></path></g></g><g transform="matrix(-0.9807112812995911,-0.19546188414096832,-0.19546188414096832,0.9807112812995911,346.2953186035156,319.262451171875)" opacity="1" style="display: block;"><g opacity="1" transform="matrix(1.7755504846572876,0.920554518699646,-0.920554518699646,1.7755504846572876,0,0)"><path fill="rgb(4,4,4)" fill-opacity="1" d=" M10.430999755859375,5.734000205993652 C10.430999755859375,-1.9220000505447388 2.174999952316284,-13.871999740600586 -2.308000087738037,-13.871999740600586 C-6.790999889373779,-13.871999740600586 -10.430999755859375,-7.656000137329102 -10.430999755859375,0 C-10.430999755859375,7.656000137329102 -6.790999889373779,13.871999740600586 -2.308000087738037,13.871999740600586 C2.174999952316284,13.871999740600586 10.430999755859375,13.390000343322754 10.430999755859375,5.734000205993652z"></path></g></g><g transform="matrix(1,0,0,1,399.32000732421875,401.0530090332031)" opacity="1" style="display: block;"><g opacity="1" transform="matrix(2,0,0,2,0,0)"><path fill="rgb(4,4,4)" fill-opacity="1" d=" M-0.7269999980926514,-50.16899871826172 C26.176000595092773,-51.23500061035156 48.900001525878906,-30.39699935913086 50.159000396728516,-3.503999948501587 C50.696998596191406,7.88100004196167 51.21099853515625,18.85300064086914 51.637001037597656,27.8799991607666 C51.909000396728516,33.70399856567383 49.7869987487793,39.38600158691406 45.762001037597656,43.604000091552734 C41.73699951171875,47.821998596191406 36.15800094604492,50.20800018310547 30.33099937438965,50.20800018310547 C30.33099937438965,50.20800018310547 -30.33099937438965,50.20800018310547 -30.33099937438965,50.20800018310547 C-36.16400146484375,50.20800018310547 -41.73699951171875,47.821998596191406 -45.762001037597656,43.604000091552734 C-49.7869987487793,39.38600158691406 -51.909000396728516,33.70399856567383 -51.637001037597656,27.8799991607666 C-51.21099853515625,18.868999481201172 -50.70399856567383,7.918000221252441 -50.15399932861328,-3.444999933242798 C-48.94200134277344,-29.302000045776367 -27.825000762939453,-49.750999450683594 -1.9390000104904175,-50.13199996948242 C-1.5369999408721924,-50.137001037597656 -1.128999948501587,-50.14799880981445 -0.7269999980926514,-50.16899871826172z"></path></g></g><g clip-path="url(#__lottie_element_181)" transform="matrix(1,0,0,1,345.11199951171875,331.0250244140625)" opacity="1" style="display: block;"><g clip-path="url(#__lottie_element_182)"><g transform="matrix(1,0,0,1,24.996000289916992,25.23200035095215)" opacity="1" style="display: block;"><g opacity="1" transform="matrix(2,0,0,2,0,0)"><path fill="rgb(78,77,77)" fill-opacity="1" d=" M0,12.616000175476074 C6.9019999504089355,12.616000175476074 12.498000144958496,6.9679999351501465 12.498000144958496,0 C12.498000144958496,-6.9679999351501465 6.9019999504089355,-12.616000175476074 0,-12.616000175476074 C-6.9019999504089355,-12.616000175476074 -12.498000144958496,-6.9679999351501465 -12.498000144958496,0 C-12.498000144958496,6.9679999351501465 -6.9019999504089355,12.616000175476074 0,12.616000175476074z"></path></g></g><g transform="matrix(1,0,0,1,25.265764236450195,30.5423526763916)" opacity="1" style="display: block;"><g opacity="1" transform="matrix(2,0,0,2,0,0)"><path fill="rgb(7,8,7)" fill-opacity="1" d=" M0,8 C1.1050000190734863,8 2,4.418000221252441 2,0 C2,-4.418000221252441 1.1050000190734863,-8 0,-8 C-1.1050000190734863,-8 -2,-4.418000221252441 -2,0 C-2,4.418000221252441 -1.1050000190734863,8 0,8z"></path></g></g><g transform="matrix(1,0,0,1,25.377365112304688,36.600154876708984)" opacity="1" style="display: block;"><g opacity="1" transform="matrix(2,0,0,2,0,0)"><path fill="rgb(255,255,255)" fill-opacity="1" d=" M0,2.3529999256134033 C1.2879999876022339,2.3529999256134033 2.3310000896453857,1.2999999523162842 2.3310000896453857,0 C2.3310000896453857,-1.2999999523162842 1.2879999876022339,-2.3529999256134033 0,-2.3529999256134033 C-1.2879999876022339,-2.3529999256134033 -2.3310000896453857,-1.2999999523162842 -2.3310000896453857,0 C-2.3310000896453857,1.2999999523162842 -1.2879999876022339,2.3529999256134033 0,2.3529999256134033z"></path></g></g></g></g><g clip-path="url(#__lottie_element_196)" transform="matrix(1,0,0,1,408.11199951171875,331.0250244140625)" opacity="1" style="display: block;"><g clip-path="url(#__lottie_element_197)"><g transform="matrix(1,0,0,1,24.996000289916992,25.23200035095215)" opacity="1" style="display: block;"><g opacity="1" transform="matrix(2,0,0,2,0,0)"><path fill="rgb(78,77,77)" fill-opacity="1" d=" M0,12.616000175476074 C6.9019999504089355,12.616000175476074 12.498000144958496,6.9679999351501465 12.498000144958496,0 C12.498000144958496,-6.9679999351501465 6.9019999504089355,-12.616000175476074 0,-12.616000175476074 C-6.9019999504089355,-12.616000175476074 -12.498000144958496,-6.9679999351501465 -12.498000144958496,0 C-12.498000144958496,6.9679999351501465 -6.9019999504089355,12.616000175476074 0,12.616000175476074z"></path></g></g><g transform="matrix(1,0,0,1,25.265764236450195,30.5423526763916)" opacity="1" style="display: block;"><g opacity="1" transform="matrix(2,0,0,2,0,0)"><path fill="rgb(7,8,7)" fill-opacity="1" d=" M0,8 C1.1050000190734863,8 2,4.418000221252441 2,0 C2,-4.418000221252441 1.1050000190734863,-8 0,-8 C-1.1050000190734863,-8 -2,-4.418000221252441 -2,0 C-2,4.418000221252441 -1.1050000190734863,8 0,8z"></path></g></g><g transform="matrix(1,0,0,1,25.377365112304688,36.600154876708984)" opacity="1" style="display: block;"><g opacity="1" transform="matrix(2,0,0,2,0,0)"><path fill="rgb(255,255,255)" fill-opacity="1" d=" M0,2.3529999256134033 C1.2879999876022339,2.3529999256134033 2.3310000896453857,1.2999999523162842 2.3310000896453857,0 C2.3310000896453857,-1.2999999523162842 1.2879999876022339,-2.3529999256134033 0,-2.3529999256134033 C-1.2879999876022339,-2.3529999256134033 -2.3310000896453857,-1.2999999523162842 -2.3310000896453857,0 C-2.3310000896453857,1.2999999523162842 -1.2879999876022339,2.3529999256134033 0,2.3529999256134033z"></path></g></g></g></g><g transform="matrix(-1,0,0,-1,401.3999938964844,382.19500732421875)" opacity="1" style="display: block;"><g opacity="1" transform="matrix(2,0,0,2,0,0)"><path fill="rgb(111,110,111)" fill-opacity="1" d=" M-0.0020000000949949026,-2.1640000343322754 C-0.3499999940395355,-2.1640000343322754 -0.6840000152587891,-2.0230000019073486 -0.9259999990463257,-1.7740000486373901 C-1.4140000343322754,-1.277999997138977 -2.0309998989105225,-0.6480000019073486 -2.625,-0.039000000804662704 C-2.990000009536743,0.33399999141693115 -3.0950000286102295,0.8889999985694885 -2.8929998874664307,1.3700000047683716 C-2.690999984741211,1.8509999513626099 -2.2200000286102295,2.1640000343322754 -1.6959999799728394,2.1640000343322754 C-1.152999997138977,2.1640000343322754 -0.578000009059906,2.1640000343322754 -0.0020000000949949026,2.1640000343322754 C0.574999988079071,2.1640000343322754 1.1519999504089355,2.1640000343322754 1.6959999799728394,2.1640000343322754 C2.2200000286102295,2.1640000343322754 2.690999984741211,1.8509999513626099 2.8929998874664307,1.3700000047683716 C3.0950000286102295,0.8889999985694885 2.990000009536743,0.33399999141693115 2.625,-0.039000000804662704 C2.0269999504089355,-0.6480000019073486 1.409999966621399,-1.277999997138977 0.9259999990463257,-1.7740000486373901 C0.6840000152587891,-2.0230000019073486 0.3499999940395355,-2.1640000343322754 -0.0020000000949949026,-2.1640000343322754z"></path></g></g></g><g transform="matrix(1,0,0,1,1918.491943359375,900.0640258789062)" opacity="1" style="display: block;"><g opacity="1" transform="matrix(2,0,0,2,0,0)"><path fill="rgb(24,24,24)" fill-opacity="1" d=" M320.7179870605469,37.7599983215332 C320.7179870605469,37.7599983215332 320.7179870605469,-97.7040023803711 320.7179870605469,-97.7040023803711 C320.7179870605469,-97.7040023803711 222.54200744628906,37.7599983215332 222.54200744628906,37.7599983215332 C222.54200744628906,37.7599983215332 320.7179870605469,37.7599983215332 320.7179870605469,37.7599983215332z M320.7179870605469,94.4000015258789 C320.7179870605469,94.4000015258789 157.406005859375,94.4000015258789 157.406005859375,94.4000015258789 C157.406005859375,94.4000015258789 157.406005859375,38.231998443603516 157.406005859375,38.231998443603516 C157.406005859375,38.231998443603516 304.6700134277344,-165.1999969482422 304.6700134277344,-165.1999969482422 C304.6700134277344,-165.1999969482422 387.2699890136719,-165.1999969482422 387.2699890136719,-165.1999969482422 C387.2699890136719,-165.1999969482422 387.2699890136719,37.7599983215332 387.2699890136719,37.7599983215332 C387.2699890136719,37.7599983215332 433.0539855957031,37.7599983215332 433.0539855957031,37.7599983215332 C433.0539855957031,37.7599983215332 433.0539855957031,94.4000015258789 433.0539855957031,94.4000015258789 C433.0539855957031,94.4000015258789 387.2699890136719,94.4000015258789 387.2699890136719,94.4000015258789 C387.2699890136719,94.4000015258789 387.2699890136719,165.1999969482422 387.2699890136719,165.1999969482422 C387.2699890136719,165.1999969482422 320.7179870605469,165.1999969482422 320.7179870605469,165.1999969482422 C320.7179870605469,165.1999969482422 320.7179870605469,94.4000015258789 320.7179870605469,94.4000015258789z M0.4410000145435333,110.447998046875 C40.56100082397461,110.447998046875 68.40899658203125,73.63200378417969 68.40899658203125,5.191999912261963 C68.40899658203125,5.191999912261963 68.40899658203125,-5.191999912261963 68.40899658203125,-5.191999912261963 C68.40899658203125,-73.16000366210938 40.56100082397461,-110.447998046875 0.4410000145435333,-110.447998046875 C-40.1510009765625,-110.447998046875 -67.9990005493164,-73.16000366210938 -67.9990005493164,-5.191999912261963 C-67.9990005493164,-5.191999912261963 -67.9990005493164,5.191999912261963 -67.9990005493164,5.191999912261963 C-67.9990005493164,73.63200378417969 -40.1510009765625,110.447998046875 0.4410000145435333,110.447998046875z M0.4410000145435333,168.03199768066406 C-79.79900360107422,168.03199768066406 -135.9669952392578,108.08799743652344 -135.9669952392578,7.552000045776367 C-135.9669952392578,7.552000045776367 -135.9669952392578,-7.552000045776367 -135.9669952392578,-7.552000045776367 C-135.9669952392578,-106.19999694824219 -79.79900360107422,-168.03199768066406 0.4410000145435333,-168.03199768066406 C80.20899963378906,-168.03199768066406 136.3769989013672,-106.19999694824219 136.3769989013672,-7.552000045776367 C136.3769989013672,-7.552000045776367 136.3769989013672,7.552000045776367 136.3769989013672,7.552000045776367 C136.3769989013672,108.08799743652344 80.20899963378906,168.03199768066406 0.4410000145435333,168.03199768066406z M-269.74200439453125,37.7599983215332 C-269.74200439453125,37.7599983215332 -269.74200439453125,-97.7040023803711 -269.74200439453125,-97.7040023803711 C-269.74200439453125,-97.7040023803711 -367.9179992675781,37.7599983215332 -367.9179992675781,37.7599983215332 C-367.9179992675781,37.7599983215332 -269.74200439453125,37.7599983215332 -269.74200439453125,37.7599983215332z M-269.74200439453125,94.4000015258789 C-269.74200439453125,94.4000015258789 -433.0539855957031,94.4000015258789 -433.0539855957031,94.4000015258789 C-433.0539855957031,94.4000015258789 -433.0539855957031,38.231998443603516 -433.0539855957031,38.231998443603516 C-433.0539855957031,38.231998443603516 -285.7900085449219,-165.1999969482422 -285.7900085449219,-165.1999969482422 C-285.7900085449219,-165.1999969482422 -203.19000244140625,-165.1999969482422 -203.19000244140625,-165.1999969482422 C-203.19000244140625,-165.1999969482422 -203.19000244140625,37.7599983215332 -203.19000244140625,37.7599983215332 C-203.19000244140625,37.7599983215332 -157.406005859375,37.7599983215332 -157.406005859375,37.7599983215332 C-157.406005859375,37.7599983215332 -157.406005859375,94.4000015258789 -157.406005859375,94.4000015258789 C-157.406005859375,94.4000015258789 -203.19000244140625,94.4000015258789 -203.19000244140625,94.4000015258789 C-203.19000244140625,94.4000015258789 -203.19000244140625,165.1999969482422 -203.19000244140625,165.1999969482422 C-203.19000244140625,165.1999969482422 -269.74200439453125,165.1999969482422 -269.74200439453125,165.1999969482422 C-269.74200439453125,165.1999969482422 -269.74200439453125,94.4000015258789 -269.74200439453125,94.4000015258789z"></path></g></g><g clip-path="url(#__lottie_element_163)" transform="matrix(1,0,0,1,1681,1133.4649658203125)" opacity="1" style="display: block;"><g transform="matrix(1,0,0,1,37.5,33)" opacity="1" style="display: block;"><g opacity="1" transform="matrix(2,0,0,2,0,0)"><path stroke-linecap="butt" stroke-linejoin="miter" fill-opacity="0" stroke-miterlimit="4" stroke="rgb(24,24,24)" stroke-opacity="1" stroke-width="4" d=" M-2.39296293258667,8.768714904785156 C-2.39296293258667,8.768714904785156 1.3651453256607056,3.6946537494659424 3.003145217895508,0.3686538338661194 C4.675145149230957,-3.025346279144287 9.75,-8.5 9.75,-8.5 C9.75,-8.5 3.6734745502471924,-7.525196552276611 0.04147443175315857,-3.677196502685547 C-3.049525499343872,-0.4021964371204376 -7.493967533111572,2.3757925033569336 -7.493967533111572,2.3757925033569336 M4.586535453796387,11.61572551727295 C5.605871200561523,9 6.538257122039795,6.873586177825928 7.539000034332275,1.3730000257492065 C8.476251602172852,-3.663996458053589 9.875,-8.375 9.875,-8.375"></path></g></g></g><g clip-path="url(#__lottie_element_156)" transform="matrix(0.9945219159126282,-0.10452846437692642,-0.10452846437692642,-0.9945219159126282,2477.086181640625,602.298583984375)" opacity="1" style="display: block;"><g transform="matrix(1,0,0,1,37.5,33)" opacity="1" style="display: block;"><g opacity="1" transform="matrix(2,0,0,2,0,0)"><path stroke-linecap="butt" stroke-linejoin="miter" fill-opacity="0" stroke-miterlimit="4" stroke="rgb(24,24,24)" stroke-opacity="1" stroke-width="4" d=" M-2.39296293258667,8.768714904785156 C-2.39296293258667,8.768714904785156 1.3651453256607056,3.6946537494659424 3.003145217895508,0.3686538338661194 C4.675145149230957,-3.025346279144287 9.75,-8.5 9.75,-8.5 C9.75,-8.5 3.6734745502471924,-7.525196552276611 0.04147443175315857,-3.677196502685547 C-3.049525499343872,-0.4021964371204376 -7.493967533111572,2.3757925033569336 -7.493967533111572,2.3757925033569336 M4.586535453796387,11.61572551727295 C5.605871200561523,9 6.538257122039795,6.873586177825928 7.539000034332275,1.3730000257492065 C8.476251602172852,-3.663996458053589 9.875,-8.375 9.875,-8.375"></path></g></g></g><g clip-path="url(#__lottie_element_149)" transform="matrix(1,0,0,1,0,0)" opacity="1" style="display: block;"><g transform="matrix(-1,0,0,-1,2706.657958984375,886.8200073242188)" opacity="1" style="display: block;"><g opacity="1" transform="matrix(0.458128958940506,1.9468225240707397,-1.9468225240707397,0.458128958940506,0,0)"><path stroke-linecap="butt" stroke-linejoin="miter" fill-opacity="0" stroke-miterlimit="4" stroke="rgb(24,24,24)" stroke-opacity="1" stroke-width="4" d=" M4.049415588378906,4.635304927825928 C4.049415588378906,4.635304927825928 4.868805885314941,0.4295835793018341 5.254423141479492,-2.468224048614502 C5.648186206817627,-5.710392475128174 4.470954418182373,-9.779921531677246 4.470954418182373,-9.779921531677246 C4.470954418182373,-9.779921531677246 1.2493575811386108,-3.5591354370117188 -0.8160350322723389,0.4511135220527649 C-2.9649434089660645,4.5043044090271 -4.60819149017334,7.214578628540039 -4.60819149017334,7.214578628540039"></path></g></g></g><g clip-path="url(#__lottie_element_142)" transform="matrix(1,0,0,1,8,0)" opacity="1" style="display: block;"><g transform="matrix(0.9659258127212524,0.258819043636322,-0.258819043636322,0.9659258127212524,2360.1044921875,764.86376953125)" opacity="1" style="display: block;"><g opacity="1" transform="matrix(0.458128958940506,1.9468225240707397,-1.9468225240707397,0.458128958940506,0,0)"><path stroke-linecap="butt" stroke-linejoin="miter" fill-opacity="0" stroke-miterlimit="4" stroke="rgb(24,24,24)" stroke-opacity="1" stroke-width="4" d=" M-1.5493801832199097,3.9408483505249023 C-1.5493801832199097,3.9408483505249023 0.09594140201807022,1.0962567329406738 2.2568717002868652,-2.1666476726531982 C4.125344753265381,-5.546377182006836 4.738999843597412,-9.717000007629395 4.738999843597412,-9.717000007629395 C4.738999843597412,-9.717000007629395 0.8005262017250061,-7.404070854187012 -2.212778329849243,-5.764106273651123 C-6.2440266609191895,-3.568714141845703 -8.640774726867676,-0.9677083492279053 -8.640774726867676,-0.9677083492279053"></path></g></g></g><g clip-path="url(#__lottie_element_135)" transform="matrix(1,0,0,1,-1113.5849609375,-80.28997802734375)" opacity="1" style="display: block;"><g transform="matrix(0.9659258127212524,0.258819043636322,-0.258819043636322,0.9659258127212524,2360.1044921875,764.86376953125)" opacity="1" style="display: block;"><g opacity="1" transform="matrix(0.458128958940506,1.9468225240707397,-1.9468225240707397,0.458128958940506,0,0)"><path stroke-linecap="butt" stroke-linejoin="miter" fill-opacity="0" stroke-miterlimit="4" stroke="rgb(24,24,24)" stroke-opacity="1" stroke-width="4" d=" M-1.5493801832199097,3.9408483505249023 C-1.5493801832199097,3.9408483505249023 0.09594140201807022,1.0962567329406738 2.2568717002868652,-2.1666476726531982 C4.125344753265381,-5.546377182006836 4.738999843597412,-9.717000007629395 4.738999843597412,-9.717000007629395 C4.738999843597412,-9.717000007629395 0.8005262017250061,-7.404070854187012 -2.212778329849243,-5.764106273651123 C-6.2440266609191895,-3.568714141845703 -8.640774726867676,-0.9677083492279053 -8.640774726867676,-0.9677083492279053"></path></g></g></g><g clip-path="url(#__lottie_element_128)" transform="matrix(-0.9986295104026794,-0.0523359552025795,-0.0523359552025795,0.9986295104026794,4503.392578125,-23.87152099609375)" opacity="1" style="display: block;"><g transform="matrix(0.9659258127212524,0.258819043636322,-0.258819043636322,0.9659258127212524,2360.1044921875,764.86376953125)" opacity="1" style="display: block;"><g opacity="1" transform="matrix(0.458128958940506,1.9468225240707397,-1.9468225240707397,0.458128958940506,0,0)"><path stroke-linecap="butt" stroke-linejoin="miter" fill-opacity="0" stroke-miterlimit="4" stroke="rgb(24,24,24)" stroke-opacity="1" stroke-width="4" d=" M-1.5493801832199097,3.9408483505249023 C-1.5493801832199097,3.9408483505249023 0.09594140201807022,1.0962567329406738 2.2568717002868652,-2.1666476726531982 C4.125344753265381,-5.546377182006836 4.738999843597412,-9.717000007629395 4.738999843597412,-9.717000007629395 C4.738999843597412,-9.717000007629395 0.8005262017250061,-7.404070854187012 -2.212778329849243,-5.764106273651123 C-6.2440266609191895,-3.568714141845703 -8.640774726867676,-0.9677083492279053 -8.640774726867676,-0.9677083492279053"></path></g></g></g><g clip-path="url(#__lottie_element_121)" transform="matrix(1,0,0,1,0,0)" opacity="1" style="display: block;"><g transform="matrix(-1,0,0,-1,1563.198974609375,957.2090454101562)" opacity="1" style="display: block;"><g opacity="1" transform="matrix(0.458128958940506,1.9468225240707397,-1.9468225240707397,0.458128958940506,0,0)"><path stroke-linecap="butt" stroke-linejoin="miter" fill-opacity="0" stroke-miterlimit="4" stroke="rgb(24,24,24)" stroke-opacity="1" stroke-width="4" d=" M0.17243467271327972,-10.928831100463867 C0.17243467271327972,-10.928831100463867 -2.151984691619873,-11.09680461883545 -5.237410068511963,-10.46728229522705 C-7.856888294219971,-9.934962272644043 -9.310999870300293,-9.649999618530273 -9.310999870300293,-9.649999618530273 C-9.310999870300293,-9.649999618530273 -7.2212138175964355,-8.024885177612305 -3.984607696533203,-4.920365333557129 C-1.5869683027267456,-2.571298837661743 0.894943118095398,0.717759370803833 0.894943118095398,0.717759370803833"></path></g></g></g><g clip-path="url(#__lottie_element_114)" transform="matrix(1,0,0,-1,-223.5,2066.7890625)" opacity="1" style="display: block;"><g transform="matrix(-1,0,0,-1,1563.198974609375,957.2090454101562)" opacity="1" style="display: block;"><g opacity="1" transform="matrix(0.458128958940506,1.9468225240707397,-1.9468225240707397,0.458128958940506,0,0)"><path stroke-linecap="butt" stroke-linejoin="miter" fill-opacity="0" stroke-miterlimit="4" stroke="rgb(24,24,24)" stroke-opacity="1" stroke-width="4" d=" M0.17243467271327972,-10.928831100463867 C0.17243467271327972,-10.928831100463867 -2.151984691619873,-11.09680461883545 -5.237410068511963,-10.46728229522705 C-7.856888294219971,-9.934962272644043 -9.310999870300293,-9.649999618530273 -9.310999870300293,-9.649999618530273 C-9.310999870300293,-9.649999618530273 -7.2212138175964355,-8.024885177612305 -3.984607696533203,-4.920365333557129 C-1.5869683027267456,-2.571298837661743 0.894943118095398,0.717759370803833 0.894943118095398,0.717759370803833"></path></g></g></g><g style="display: block;" transform="matrix(1,0,0,1,1750.5889892578125,1399.465087890625)" opacity="1"><g opacity="1" transform="matrix(2,0,0,2,0,0)"><path stroke-linecap="butt" stroke-linejoin="miter" fill-opacity="0" stroke-miterlimit="4" stroke="rgb(24,24,24)" stroke-opacity="1" stroke-width="2" d=" M41,0 C41,0 -24.264999389648438,0 -38.34400177001953,0"></path></g></g><g clip-path="url(#__lottie_element_86)" transform="matrix(1,0,0,1,1616.1849365234375,1164.612060546875)" opacity="1" style="display: block;"><g transform="matrix(0.8220074772834778,0.5694766640663147,-0.5694766640663147,0.8220074772834778,175.91000366210938,163.34300231933594)" opacity="1" style="display: block;"><g opacity="1" transform="matrix(2,0,0,2,0,0)"><path stroke-linecap="butt" stroke-linejoin="miter" fill-opacity="0" stroke-miterlimit="4" stroke="rgb(24,24,24)" stroke-opacity="1" stroke-width="2" d=" M1.6820000410079956,26.166000366210938 C22.003999710083008,38.61800003051758 29.229999542236328,25.708999633789062 32.61899948120117,7.355999946594238 C35.29100036621094,-7.111000061035156 28.285999298095703,-10.895000457763672 26.895000457763672,-18.719999313354492 M1.6820000410079956,26.166000366210938 C-8.081999778747559,26.483999252319336 -18.922000885009766,26.506999969482422 -25.892000198364258,24.04199981689453 C-31.211000442504883,22.160999298095703 -34.275001525878906,18.832000732421875 -32.887001037597656,13.079999923706055 C-28.434999465942383,-5.363999843597412 -37.9630012512207,-7.28000020980835 -25.892000198364258,-18.719999313354492 C-11.984999656677246,-31.899999618530273 7.784999847412109,-37.875 11.631999969482422,-25.079999923706055 M1.6820000410079956,26.166000366210938 C8.362000465393066,25.947999954223633 14.539999961853027,25.593000411987305 18.628999710083008,25.799999237060547 C33.25699996948242,26.541000366210938 11.008999824523926,6.798999786376953 22.44499969482422,-5.363999843597412 C36.71699905395508,-20.542999267578125 22.916000366210938,-18.209999084472656 11.631999969482422,-25.079999923706055 M1.6820000410079956,26.166000366210938 C-2.63700008392334,33.435001373291016 -14.168999671936035,35.012001037597656 -21.440000534057617,25.799999237060547 C-29.667999267578125,15.37600040435791 1.1820000410079956,-31.441999435424805 11.631999969482422,-25.079999923706055 M1.6820000410079956,26.166000366210938 C9.685999870300293,22.492000579833984 17.7810001373291,17.19499969482422 22.44499969482422,13.079999923706055 C33.257999420166016,3.5399999618530273 7.181000232696533,-6 4.000999927520752,-18.719999313354492 C0.8209999799728394,-31.440000534057617 -8.564000129699707,-13.050999641418457 -21.440000534057617,-10.45199966430664 C-34.316001892089844,-7.853000164031982 -16.988000869750977,13.079999923706055 -0.4519999921321869,18.804000854492188 C16.083999633789062,24.527999877929688 7.815999984741211,7.355999946594238 -4.26800012588501,-10.45199966430664 C-16.351999282836914,-28.260000228881836 -0.4519999921321869,25.163999557495117 11.631999969482422,7.355999946594238 C21.298999786376953,-6.889999866485596 -10.628000259399414,-21.899999618530273 -9.355999946594238,7.355999946594238"></path></g></g><g transform="matrix(0.8220074772834778,0.5694766640663147,-0.5694766640663147,0.8220074772834778,159.33102416992188,98.5730972290039)" opacity="1" style="display: block;"><g opacity="1" transform="matrix(2,0,0,2,0,0)"><path stroke-linecap="butt" stroke-linejoin="miter" fill-opacity="0" stroke-miterlimit="4" stroke="rgb(24,24,24)" stroke-opacity="1" stroke-width="2" d=" M-3.815999984741211,-3.815999984741211 C-3.815999984741211,-3.815999984741211 3.815999984741211,3.815999984741211 3.815999984741211,3.815999984741211"></path></g></g><g transform="matrix(-0.8220074772834778,-0.5694766640663147,0.5694766640663147,-0.8220074772834778,227.69528198242188,142.8401641845703)" opacity="1" style="display: block;"><g opacity="1" transform="matrix(0.013194593600928783,-1.999956488609314,1.999956488609314,0.013194593600928783,0,0)"><path stroke-linecap="butt" stroke-linejoin="miter" fill-opacity="0" stroke-miterlimit="4" stroke="rgb(24,24,24)" stroke-opacity="1" stroke-width="2" d=" M-3.815999984741211,-3.815999984741211 C-3.815999984741211,-3.815999984741211 3.815999984741211,3.815999984741211 3.815999984741211,3.815999984741211"></path></g></g><g transform="matrix(-0.8220074772834778,-0.5694766640663147,0.5694766640663147,-0.8220074772834778,219.47601318359375,208.38861083984375)" opacity="1" style="display: block;"><g opacity="1" transform="matrix(1.849703311920166,-0.76065593957901,0.76065593957901,1.849703311920166,0,0)"><path stroke-linecap="butt" stroke-linejoin="miter" fill-opacity="0" stroke-miterlimit="4" stroke="rgb(24,24,24)" stroke-opacity="1" stroke-width="2" d=" M-3.815999984741211,-3.815999984741211 C-3.815999984741211,-3.815999984741211 3.815999984741211,3.815999984741211 3.815999984741211,3.815999984741211"></path></g></g><g transform="matrix(-0.8220074772834778,-0.5694766640663147,0.5694766640663147,-0.8220074772834778,140.97874450683594,219.04986572265625)" opacity="1" style="display: block;"><g opacity="1" transform="matrix(0.9095046520233154,1.781235933303833,-1.781235933303833,0.9095046520233154,0,0)"><path stroke-linecap="butt" stroke-linejoin="miter" fill-opacity="0" stroke-miterlimit="4" stroke="rgb(24,24,24)" stroke-opacity="1" stroke-width="2" d=" M-3.815999984741211,-3.815999984741211 C-3.815999984741211,-3.815999984741211 3.815999984741211,3.815999984741211 3.815999984741211,3.815999984741211"></path></g></g><g transform="matrix(-0.8220074772834778,-0.5694766640663147,0.5694766640663147,-0.8220074772834778,103.01939392089844,171.0880584716797)" opacity="1" style="display: block;"><g opacity="1" transform="matrix(0.9095046520233154,1.781235933303833,-1.781235933303833,0.9095046520233154,0,0)"><path stroke-linecap="butt" stroke-linejoin="miter" fill-opacity="0" stroke-miterlimit="4" stroke="rgb(24,24,24)" stroke-opacity="1" stroke-width="2" d=" M-3.815999984741211,-3.815999984741211 C-3.815999984741211,-3.815999984741211 3.815999984741211,3.815999984741211 3.815999984741211,3.815999984741211"></path></g></g><g transform="matrix(0.8220074772834778,0.5694766640663147,-0.5694766640663147,0.8220074772834778,121.29393005371094,130.7671661376953)" opacity="1" style="display: block;"><g opacity="1" transform="matrix(1.8490787744522095,-0.7621729969978333,0.7621729969978333,1.8490787744522095,0,0)"><path stroke-linecap="butt" stroke-linejoin="miter" fill-opacity="0" stroke-miterlimit="4" stroke="rgb(24,24,24)" stroke-opacity="1" stroke-width="2" d=" M-3.815999984741211,-3.815999984741211 C-3.815999984741211,-3.815999984741211 3.815999984741211,3.815999984741211 3.815999984741211,3.815999984741211"></path></g></g></g><g transform="matrix(1,0,0,1,2474.837890625,1502.9649658203125)" opacity="1" style="display: block;"><g opacity="1" transform="matrix(2,0,0,2,0,0)"><path stroke-linecap="butt" stroke-linejoin="miter" fill-opacity="0" stroke-miterlimit="4" stroke="rgb(24,24,24)" stroke-opacity="1" stroke-width="2" d=" M-36.92499923706055,0 C6.309999942779541,0 73,0 73,0"></path></g></g><g clip-path="url(#__lottie_element_58)" transform="matrix(1,0,0,1,2388.837890625,1252.9239501953125)" opacity="1" style="display: block;"><g transform="matrix(-0.6724979877471924,0.7400989532470703,-0.7400989532470703,-0.6724979877471924,176.33099365234375,161.6840057373047)" opacity="1" style="display: block;"><g opacity="1" transform="matrix(2,0,0,2,0,0)"><path stroke-linecap="butt" stroke-linejoin="miter" fill-opacity="0" stroke-miterlimit="4" stroke="rgb(24,24,24)" stroke-opacity="1" stroke-width="2" d=" M2.253000020980835,35.04800033569336 C29.472999572753906,51.72700119018555 39.1510009765625,34.435001373291016 43.691001892089844,9.852999687194824 C47.26900100708008,-9.52400016784668 37.887001037597656,-14.593000411987305 36.02399826049805,-25.073999404907227 M2.253000020980835,35.04800033569336 C-10.826000213623047,35.4739990234375 -25.34600067138672,35.50400161743164 -34.680999755859375,32.202999114990234 C-41.805999755859375,29.68400001525879 -45.9109992980957,25.224000930786133 -44.05099868774414,17.520000457763672 C-38.0880012512207,-7.184999942779541 -50.8489990234375,-9.75100040435791 -34.680999755859375,-25.073999404907227 C-16.05299949645996,-42.72800064086914 10.427000045776367,-50.73099899291992 15.579999923706055,-33.59299850463867 M2.253000020980835,35.04800033569336 C11.201000213623047,34.75699996948242 19.475000381469727,34.28099822998047 24.95199966430664,34.55799865722656 C44.54499816894531,35.54999923706055 14.744999885559082,9.105999946594238 30.062999725341797,-7.184999942779541 C49.17900085449219,-27.516000747680664 30.694000244140625,-24.389999389648438 15.579999923706055,-33.59299850463867 M2.253000020980835,35.04800033569336 C-3.5320000648498535,44.784000396728516 -18.979000091552734,46.89699935913086 -28.718000411987305,34.55799865722656 C-39.737998962402344,20.59600067138672 1.5829999446868896,-42.1150016784668 15.579999923706055,-33.59299850463867 M2.253000020980835,35.04800033569336 C12.973999977111816,30.125999450683594 23.81599998474121,23.0310001373291 30.062999725341797,17.520000457763672 C44.54600143432617,4.742000102996826 9.618000030517578,-8.03600025177002 5.359000205993652,-25.073999404907227 C1.100000023841858,-42.11199951171875 -11.470999717712402,-17.481000900268555 -28.718000411987305,-14 C-45.96500015258789,-10.519000053405762 -22.7549991607666,17.520000457763672 -0.6060000061988831,25.187000274658203 C21.542999267578125,32.854000091552734 10.468999862670898,9.852999687194824 -5.7170000076293945,-14 C-21.902999877929688,-37.85300064086914 -0.6060000061988831,33.70600128173828 15.579999923706055,9.852999687194824 C28.52899932861328,-9.229000091552734 -14.234999656677246,-29.333999633789062 -12.531999588012695,9.852999687194824"></path></g></g><g transform="matrix(-0.6724979877471924,0.7400989532470703,-0.7400989532470703,-0.6724979877471924,265.25360107421875,151.0601348876953)" opacity="1" style="display: block;"><g opacity="1" transform="matrix(2,0,0,2,0,0)"><path stroke-linecap="butt" stroke-linejoin="miter" fill-opacity="0" stroke-miterlimit="4" stroke="rgb(24,24,24)" stroke-opacity="1" stroke-width="2" d=" M-5.111000061035156,-5.111000061035156 C-5.111000061035156,-5.111000061035156 5.111000061035156,5.111000061035156 5.111000061035156,5.111000061035156"></path></g></g><g transform="matrix(0.6724979877471924,-0.7400989532470703,0.7400989532470703,0.6724979877471924,194.44534301757812,234.0538787841797)" opacity="1" style="display: block;"><g opacity="1" transform="matrix(0.013194593600928783,-1.999956488609314,1.999956488609314,0.013194593600928783,0,0)"><path stroke-linecap="butt" stroke-linejoin="miter" fill-opacity="0" stroke-miterlimit="4" stroke="rgb(24,24,24)" stroke-opacity="1" stroke-width="2" d=" M-5.111000061035156,-5.111000061035156 C-5.111000061035156,-5.111000061035156 5.111000061035156,5.111000061035156 5.111000061035156,5.111000061035156"></path></g></g><g transform="matrix(0.6724979877471924,-0.7400989532470703,0.7400989532470703,0.6724979877471924,108.85379028320312,211.6080322265625)" opacity="1" style="display: block;"><g opacity="1" transform="matrix(1.849703311920166,-0.76065593957901,0.76065593957901,1.849703311920166,0,0)"><path stroke-linecap="butt" stroke-linejoin="miter" fill-opacity="0" stroke-miterlimit="4" stroke="rgb(24,24,24)" stroke-opacity="1" stroke-width="2" d=" M-5.111000061035156,-5.111000061035156 C-5.111000061035156,-5.111000061035156 5.111000061035156,5.111000061035156 5.111000061035156,5.111000061035156"></path></g></g><g transform="matrix(0.6724979877471924,-0.7400989532470703,0.7400989532470703,0.6724979877471924,108.5062484741211,105.50096893310547)" opacity="1" style="display: block;"><g opacity="1" transform="matrix(0.9095046520233154,1.781235933303833,-1.781235933303833,0.9095046520233154,0,0)"><path stroke-linecap="butt" stroke-linejoin="miter" fill-opacity="0" stroke-miterlimit="4" stroke="rgb(24,24,24)" stroke-opacity="1" stroke-width="2" d=" M-5.111000061035156,-5.111000061035156 C-5.111000061035156,-5.111000061035156 5.111000061035156,5.111000061035156 5.111000061035156,5.111000061035156"></path></g></g><g transform="matrix(0.6724979877471924,-0.7400989532470703,0.7400989532470703,0.6724979877471924,178.8722381591797,63.53089141845703)" opacity="1" style="display: block;"><g opacity="1" transform="matrix(0.9095046520233154,1.781235933303833,-1.781235933303833,0.9095046520233154,0,0)"><path stroke-linecap="butt" stroke-linejoin="miter" fill-opacity="0" stroke-miterlimit="4" stroke="rgb(24,24,24)" stroke-opacity="1" stroke-width="2" d=" M-5.111000061035156,-5.111000061035156 C-5.111000061035156,-5.111000061035156 5.111000061035156,5.111000061035156 5.111000061035156,5.111000061035156"></path></g></g><g transform="matrix(-0.6724979877471924,0.7400989532470703,-0.7400989532470703,-0.6724979877471924,229.19517517089844,94.89165496826172)" opacity="1" style="display: block;"><g opacity="1" transform="matrix(1.8490787744522095,-0.7621729969978333,0.7621729969978333,1.8490787744522095,0,0)"><path stroke-linecap="butt" stroke-linejoin="miter" fill-opacity="0" stroke-miterlimit="4" stroke="rgb(24,24,24)" stroke-opacity="1" stroke-width="2" d=" M-5.111000061035156,-5.111000061035156 C-5.111000061035156,-5.111000061035156 5.111000061035156,5.111000061035156 5.111000061035156,5.111000061035156"></path></g></g></g></g></g></svg>
